<svg width="20" height="20" viewBox="0 0 20 20" fill="none" xmlns="http://www.w3.org/2000/svg">
<path d="M10.0005 1.00046C7.63868 0.976377 5.36394 1.89103 3.67622 3.5434C1.9885 5.19578 1.0259 7.45065 1 9.81244C1.00917 11.6789 1.60965 13.4945 2.71519 14.9983C3.82072 16.5022 5.37443 17.617 7.15317 18.1826C7.60285 18.2641 7.76681 17.9941 7.76681 17.7575V16.2602C5.26313 16.7913 4.73098 15.082 4.73098 15.082C4.56432 14.545 4.20985 14.0859 3.73245 13.7889C2.91458 13.2489 3.79823 13.2567 3.79823 13.2567C4.37162 13.3333 4.87825 13.6691 5.1728 14.1649C5.42666 14.6054 5.84333 14.9285 6.33308 15.0647C6.82284 15.201 7.34651 15.1395 7.79136 14.8934C7.83652 14.4457 8.03976 14.0284 8.36377 13.7152C6.3677 13.4943 4.27246 12.7413 4.27246 9.36276C4.25457 8.4813 4.58027 7.62744 5.18066 6.98181C4.90725 6.22489 4.93966 5.39121 5.27099 4.6578C5.27099 4.6578 6.03191 4.4202 7.72558 5.55815C9.19978 5.16534 10.7511 5.16534 12.2253 5.55815C13.9435 4.4202 14.6799 4.6578 14.6799 4.6578C15.0113 5.39121 15.0437 6.22489 14.7703 6.98181C15.3849 7.61509 15.7275 8.4634 15.7275 9.34607C15.7275 12.7334 13.6166 13.4776 11.6362 13.6986C12.0751 14.1247 12.3009 14.7256 12.2499 15.3353V17.7486C12.2499 18.0353 12.4138 18.2641 12.8635 18.1747C14.6372 17.6056 16.1857 16.4905 17.2878 14.9887C18.3898 13.4869 18.9891 11.6752 19 9.81244C18.9741 7.45082 18.0116 5.1961 16.3241 3.54375C14.6366 1.89141 12.3621 0.976639 10.0005 1.00046" fill="black"/>
</svg>
